<svg viewBox="0 0 1080 1080" fill="none" xmlns="http://www.w3.org/2000/svg">      <defs>  <filter id="filter" x="-20%" y="-20%" width="140%" height="140%" filterUnits="objectBoundingBox" primitiveUnits="userSpaceOnUse" color-interpolation-filters="linearRGB">    <feMorphology operator="dilate" radius="20 20" in="SourceAlpha" result="morphology"/>    <feFlood flood-color="#ffffff" flood-opacity="1" result="flood"/>    <feComposite in="flood" in2="morphology" operator="in" result="composite"/>    <feMerge result="merge">          <feMergeNode in="composite" result="mergeNode"/>      <feMergeNode in="SourceGraphic" result="mergeNode1"/>      </feMerge>  </filter></defs>      <g id="notion-avatar" filter="url(#filter)">        <g id="notion-avatar-face" fill="#ffffff">      <!--?xml version="1.0" encoding="UTF-8"?-->    <title>Face/ 8</title>    <g id="Face/-8" stroke="none" stroke-width="1" fill-rule="evenodd" stroke-linecap="round" stroke-linejoin="round">        <path d="M532,379 C664.54834,379 772,486.45166 772,619 C772,751.54834 724.54834,899 592,899 C492.560218,899 373.476049,816.010833 320.189513,718.584987 C317.498129,718.859681 314.765451,719 312,719 C267.81722,719 232,683.18278 232,639 C232,599.134956 261.158843,566.080325 299.312086,560.00055 C325.599297,455.979213 419.809919,379 532,379 Z M295.858895,624.545187 L304.141105,655.454813" id="Path" stroke="#000000" stroke-width="24"/>    </g>    </g><g id="notion-avatar-nose">      <g id="Nose/ 13"><path id="Path" fill-rule="evenodd" clip-rule="evenodd" d="M644 560C644 560 665.892 613.522 673 623C676 627 693.906 641.256 692.774 653.58C690.065 683.076 644 684.359 644 684.359C644 684.359 700 689.489 700 653.58C700 637.222 687 632 674 620C666.959 613.5 644 560 644 560Z" fill="black" stroke="black" stroke-width="6" stroke-linecap="round" stroke-linejoin="round"/></g>    </g><g id="notion-avatar-mouth">      <!--?xml version="1.0" encoding="UTF-8"?-->    <title>Mouth/ 1</title>    <g id="Mouth/-1" stroke="none" stroke-width="1" fill="none" fill-rule="evenodd" stroke-linecap="round" stroke-linejoin="round">        <path d="M549,759 C575.12979,773.666667 603.12979,781 633,781 C662.87021,781 682.87021,773.666667 693,759" id="Path" stroke="#000000" stroke-width="16"/>    </g>    </g><g id="notion-avatar-eyes">      <!--?xml version="1.0" encoding="UTF-8"?-->    <title>Eyes/ 6</title>    <g id="Eyes/-6" stroke="none" stroke-width="1" fill="none" fill-rule="evenodd">        <g id="Group" transform="translate(518.000000, 518.575690)">            <circle id="Oval" fill="#000000" cx="48.2285714" cy="20" r="20"/>            <path d="M0,22.4243101 C16,9.09097677 32,2.42431011 48,2.42431011 C64,2.42431011 80,9.09097677 96,22.4243101" id="Path" stroke="#000000" stroke-width="12" stroke-linecap="round" stroke-linejoin="round"/>            <circle id="Oval" fill="#000000" transform="translate(193.771429, 20.000000) scale(-1, 1) translate(-193.771429, -20.000000) " cx="193.771429" cy="20" r="20"/>            <path d="M146,22.4243101 C162,9.09097677 178,2.42431011 194,2.42431011 C210,2.42431011 226,9.09097677 242,22.4243101" id="Path" stroke="#000000" stroke-width="12" stroke-linecap="round" stroke-linejoin="round" transform="translate(194.000000, 12.424310) scale(-1, 1) translate(-194.000000, -12.424310) "/>        </g>    </g>    </g><g id="notion-avatar-eyebrows">      <g id="Eyebrows/ 15"><g id="Group"><path id="Path" fill-rule="evenodd" clip-rule="evenodd" d="M622.289 506.124C622.289 506.124 622.95 493.517 619.376 491.698C615.802 489.88 558.683 477.099 542.118 478.134C525.552 479.169 502.752 494.15 502.752 494.15C502.752 494.15 526.26 485.069 547.179 487.167C568.098 489.265 622.289 506.124 622.289 506.124Z" fill="black" stroke="black" stroke-width="4" stroke-linecap="round" stroke-linejoin="round"/><path id="Path_2" fill-rule="evenodd" clip-rule="evenodd" d="M654.711 506.124C654.711 506.124 654.05 493.517 657.624 491.698C661.198 489.88 718.317 477.099 734.882 478.134C751.448 479.169 774.248 494.15 774.248 494.15C774.248 494.15 750.74 485.069 729.821 487.167C708.902 489.265 654.711 506.124 654.711 506.124Z" fill="black" stroke="black" stroke-width="4" stroke-linecap="round" stroke-linejoin="round"/></g></g>    </g><g id="notion-avatar-glasses">      <!--?xml version="1.0" encoding="UTF-8"?-->    <title>Glasses/ 3</title>    <g id="Glasses/-3" stroke="none" stroke-width="1" fill="none" fill-rule="evenodd" stroke-linecap="round" stroke-linejoin="round">        <g id="Group" transform="translate(293.000000, 488.000000)" stroke="#000000" stroke-width="8">            <path d="M197.493245,10.4280671 C174.636102,27.3582996 188.604356,103.544346 244.477372,103.544346 C300.350388,103.544346 337.149222,42.6997481 325.747213,20.1024857 C314.345204,-2.49477675 220.350388,-6.50216547 197.493245,10.4280671 Z" id="Path"/>            <path d="M376.540864,10.4280671 C353.683721,27.3582996 367.651975,103.544346 423.524991,103.544346 C479.398007,103.544346 516.196841,42.6997481 504.794832,20.1024857 C493.392823,-2.49477675 399.398007,-6.50216547 376.540864,10.4280671 Z" id="Path" transform="translate(436.458153, 51.772173) scale(-1, 1) translate(-436.458153, -51.772173) "/>            <line x1="301.285714" y1="5.44186047" x2="392.714286" y2="5.44186047" id="Path"/>            <line x1="326.68254" y1="21.1627907" x2="367.31746" y2="21.1627907" id="Path"/>            <line x1="186.554557" y1="30.8015819" x2="1.25992802" y2="69.9860126" id="Path" transform="translate(94.259928, 50.646655) rotate(1.361411) translate(-94.259928, -50.646655) "/>        </g>    </g>    </g><g id="notion-avatar-hair">      <!--?xml version="1.0" encoding="UTF-8"?-->    <title>Hairstyle/ 11</title>    <g id="Hairstyle/-11" stroke="none" stroke-width="1" fill="none" fill-rule="evenodd" stroke-linecap="round" stroke-linejoin="round">        <path d="M287.145773,564.824988 L328.116663,564.824988 L366,655 C368,609 370.666667,578.666667 374,564 C377.333333,549.333333 386,536 400,524 C404.686858,511.205454 408.020191,498.538788 410,486 C411.979809,473.461212 412.646475,460.794546 412,448 C431.277968,442.027683 448.944635,435.027683 465,427 C481.055365,418.972317 496.055365,409.638984 510,399 C541.018923,414.567133 564.018923,423.900467 579,427 C598.333333,431 625.666667,431 661,427 C677,435 690.333333,444.666667 701,456 C711.666667,467.333333 719.333333,477 724,485 C739.337022,483.068501 749.003689,474.068501 753,458 C758.994467,433.897248 749.308457,421.45399 753,385 C755.461029,360.69734 761.794362,334.364006 772,306 C756.671455,311.760083 745.671455,315.093417 739,316 C713.953321,319.403591 695.432317,316 684,316 C636.89228,316 645,282 615,272 C595,265.333333 574.900668,265.39119 554.702003,272.17357 C537.058392,259.349997 518.824391,250.958807 500,247 C481.175609,243.041193 457.508942,242.041193 429,244 C432.618992,252.559514 429.952325,263.892847 421,278 C407.571512,299.160729 404,300 392,311 C380,322 362,318 347,335 C337,346.333333 333,359.666667 335,375 C327.529566,375.74088 320.196232,377.74088 313,381 C305.803768,384.25912 299.470434,389.592453 294,397 C316.094259,401.247038 325.477218,404.098045 322.148877,405.553022 C298.10323,416.064523 271.638366,440.518688 265,458 C256.983334,479.110894 264.365258,514.719224 287.145773,564.824988 Z" id="Path" stroke="#000000" stroke-width="12" fill="#000000"/>    </g>    </g><g id="notion-avatar-accessories">      <!--?xml version="1.0" encoding="UTF-8"?-->    <title>Accessories/ 0</title>    <g id="Accessories/-0" stroke="none" stroke-width="1" fill="none" fill-rule="evenodd"/>    </g><g id="notion-avatar-details">      <!--?xml version="1.0" encoding="UTF-8"?-->    <title>Details/ 0</title>    <g id="Details/-0" stroke="none" stroke-width="1" fill="none" fill-rule="evenodd"/>    </g><g id="notion-avatar-beard">      <!--?xml version="1.0" encoding="UTF-8"?-->    <title>Beard/ 0</title>    <g id="Beard/-0" stroke="none" stroke-width="1" fill="none" fill-rule="evenodd"/>    </g>      </g>      </svg>